G04 EAGLE Gerber X2 export*
%TF.Part,Single*%
%TF.FileFunction,Copper,L1,Top,Mixed*%
%TF.FilePolarity,Positive*%
%TF.GenerationSoftware,Autodesk,EAGLE,8.7.0*%
%TF.CreationDate,2018-11-06T21:30:33Z*%
G75*
%MOMM*%
%FSLAX34Y34*%
%LPD*%
%AMOC8*
5,1,8,0,0,1.08239X$1,22.5*%
G01*
%ADD10C,1.790700*%
%ADD11C,1.320800*%
%ADD12C,1.524000*%
%ADD13C,1.981200*%
%ADD14P,1.429621X8X22.500000*%
%ADD15R,0.800000X0.900000*%
%ADD16P,1.429621X8X112.500000*%
%ADD17P,1.429621X8X202.500000*%
%ADD18P,1.429621X8X292.500000*%
%ADD19R,2.500000X2.500000*%
%ADD20C,1.458000*%
%ADD21C,1.422400*%
%ADD22C,1.400000*%
%ADD23C,1.308000*%
%ADD24C,1.016000*%
%ADD25C,0.756400*%
%ADD26C,0.609600*%
%ADD27C,0.812800*%

G36*
X622390Y75454D02*
X622390Y75454D01*
X622481Y75461D01*
X622511Y75473D01*
X622543Y75479D01*
X622623Y75521D01*
X622707Y75557D01*
X622739Y75583D01*
X622760Y75594D01*
X622782Y75617D01*
X622838Y75662D01*
X635538Y88362D01*
X635591Y88436D01*
X635651Y88505D01*
X635663Y88535D01*
X635682Y88561D01*
X635709Y88648D01*
X635743Y88733D01*
X635747Y88774D01*
X635754Y88797D01*
X635753Y88829D01*
X635761Y88900D01*
X635761Y101600D01*
X635747Y101690D01*
X635739Y101781D01*
X635727Y101811D01*
X635722Y101843D01*
X635679Y101923D01*
X635643Y102007D01*
X635617Y102039D01*
X635606Y102060D01*
X635583Y102082D01*
X635538Y102138D01*
X622838Y114838D01*
X622764Y114891D01*
X622695Y114951D01*
X622665Y114963D01*
X622639Y114982D01*
X622552Y115009D01*
X622467Y115043D01*
X622426Y115047D01*
X622403Y115054D01*
X622371Y115053D01*
X622300Y115061D01*
X381000Y115061D01*
X380910Y115047D01*
X380819Y115039D01*
X380789Y115027D01*
X380757Y115022D01*
X380677Y114979D01*
X380593Y114943D01*
X380561Y114917D01*
X380540Y114906D01*
X380518Y114883D01*
X380462Y114838D01*
X367762Y102138D01*
X367709Y102064D01*
X367649Y101995D01*
X367637Y101965D01*
X367618Y101939D01*
X367591Y101852D01*
X367557Y101767D01*
X367553Y101726D01*
X367546Y101703D01*
X367547Y101671D01*
X367539Y101600D01*
X367539Y88900D01*
X367554Y88810D01*
X367561Y88719D01*
X367573Y88689D01*
X367579Y88657D01*
X367621Y88577D01*
X367657Y88493D01*
X367683Y88461D01*
X367694Y88440D01*
X367717Y88418D01*
X367762Y88362D01*
X380462Y75662D01*
X380536Y75609D01*
X380605Y75549D01*
X380635Y75537D01*
X380661Y75518D01*
X380748Y75491D01*
X380833Y75457D01*
X380874Y75453D01*
X380897Y75446D01*
X380929Y75447D01*
X381000Y75439D01*
X622300Y75439D01*
X622390Y75454D01*
G37*
G36*
X317520Y507242D02*
X317520Y507242D01*
X317539Y507240D01*
X317641Y507262D01*
X317743Y507279D01*
X317760Y507288D01*
X317780Y507292D01*
X317869Y507345D01*
X317960Y507394D01*
X317974Y507408D01*
X317991Y507418D01*
X318058Y507497D01*
X318130Y507572D01*
X318138Y507590D01*
X318151Y507605D01*
X318190Y507701D01*
X318233Y507795D01*
X318235Y507815D01*
X318243Y507833D01*
X318261Y508000D01*
X318261Y533400D01*
X318247Y533490D01*
X318239Y533581D01*
X318227Y533611D01*
X318222Y533643D01*
X318179Y533723D01*
X318143Y533807D01*
X318117Y533839D01*
X318106Y533860D01*
X318083Y533882D01*
X318038Y533938D01*
X305338Y546638D01*
X305264Y546691D01*
X305195Y546751D01*
X305165Y546763D01*
X305139Y546782D01*
X305052Y546809D01*
X304967Y546843D01*
X304926Y546847D01*
X304903Y546854D01*
X304871Y546853D01*
X304800Y546861D01*
X88900Y546861D01*
X88810Y546847D01*
X88719Y546839D01*
X88689Y546827D01*
X88657Y546822D01*
X88577Y546779D01*
X88493Y546743D01*
X88461Y546717D01*
X88440Y546706D01*
X88418Y546683D01*
X88362Y546638D01*
X75662Y533938D01*
X75609Y533864D01*
X75549Y533795D01*
X75537Y533765D01*
X75518Y533739D01*
X75491Y533652D01*
X75457Y533567D01*
X75453Y533526D01*
X75446Y533503D01*
X75447Y533471D01*
X75439Y533400D01*
X75439Y508000D01*
X75442Y507980D01*
X75440Y507961D01*
X75462Y507859D01*
X75479Y507757D01*
X75488Y507740D01*
X75492Y507720D01*
X75545Y507631D01*
X75594Y507540D01*
X75608Y507526D01*
X75618Y507509D01*
X75697Y507442D01*
X75772Y507371D01*
X75790Y507362D01*
X75805Y507349D01*
X75901Y507310D01*
X75995Y507267D01*
X76015Y507265D01*
X76033Y507257D01*
X76200Y507239D01*
X317500Y507239D01*
X317520Y507242D01*
G37*
D10*
X910654Y330600D02*
X892747Y330600D01*
X892747Y380600D02*
X910654Y380600D01*
D11*
X584200Y399796D02*
X584200Y413004D01*
X584200Y475996D02*
X584200Y489204D01*
D10*
X72454Y102000D02*
X54547Y102000D01*
X54547Y152000D02*
X72454Y152000D01*
X72454Y229000D02*
X54547Y229000D01*
X54547Y279000D02*
X72454Y279000D01*
X72654Y343700D02*
X54747Y343700D01*
X54747Y393700D02*
X72654Y393700D01*
X72654Y443700D02*
X54747Y443700D01*
D12*
X812800Y261620D02*
X812800Y246380D01*
X838200Y246380D02*
X838200Y261620D01*
X863600Y261620D02*
X863600Y246380D01*
X889000Y246380D02*
X889000Y261620D01*
X914400Y261620D02*
X914400Y246380D01*
X939800Y246380D02*
X939800Y261620D01*
D13*
X536956Y457200D02*
X517144Y457200D01*
X516636Y516890D02*
X496824Y516890D01*
X496824Y397510D02*
X516636Y397510D01*
X394716Y397510D02*
X374904Y397510D01*
X374904Y516890D02*
X394716Y516890D01*
D14*
X787400Y457200D03*
X812800Y457200D03*
D11*
X177800Y444500D02*
X164592Y444500D01*
X164592Y419100D02*
X177800Y419100D01*
X254000Y419100D02*
X267208Y419100D01*
X267208Y444500D02*
X254000Y444500D01*
X177800Y393700D02*
X164592Y393700D01*
X254000Y393700D02*
X267208Y393700D01*
X177800Y215900D02*
X164592Y215900D01*
X164592Y190500D02*
X177800Y190500D01*
X254000Y190500D02*
X267208Y190500D01*
X267208Y215900D02*
X254000Y215900D01*
X177800Y165100D02*
X164592Y165100D01*
X254000Y165100D02*
X267208Y165100D01*
X177800Y330200D02*
X164592Y330200D01*
X164592Y304800D02*
X177800Y304800D01*
X254000Y304800D02*
X267208Y304800D01*
X267208Y330200D02*
X254000Y330200D01*
X177800Y279400D02*
X164592Y279400D01*
X254000Y279400D02*
X267208Y279400D01*
D10*
X892747Y443630D02*
X910654Y443630D01*
X910654Y493630D02*
X892747Y493630D01*
X152800Y52134D02*
X152800Y34227D01*
X202800Y34227D02*
X202800Y52134D01*
D15*
X523900Y307500D03*
X542900Y307500D03*
X533400Y328500D03*
D16*
X139700Y381000D03*
X139700Y457200D03*
D14*
X660400Y508000D03*
X736600Y508000D03*
X660400Y342900D03*
X736600Y342900D03*
D16*
X139700Y152400D03*
X139700Y228600D03*
X139700Y266700D03*
X139700Y342900D03*
D17*
X736600Y406400D03*
X660400Y406400D03*
D18*
X292100Y457200D03*
X292100Y381000D03*
X292100Y228600D03*
X292100Y152400D03*
X292100Y342900D03*
X292100Y266700D03*
D14*
X660400Y457200D03*
X736600Y457200D03*
X368300Y317500D03*
X393700Y317500D03*
X393700Y342900D03*
D19*
X347980Y264160D03*
X347980Y91440D03*
X744220Y91440D03*
X744220Y264160D03*
D20*
X816510Y104300D02*
X831090Y104300D01*
X831090Y124300D02*
X816510Y124300D01*
X816510Y79300D02*
X831090Y79300D01*
X831090Y149300D02*
X816510Y149300D01*
D21*
X850900Y551688D02*
X850900Y565912D01*
X876300Y565912D02*
X876300Y551688D01*
X901700Y551688D02*
X901700Y565912D01*
X927100Y565912D02*
X927100Y551688D01*
D22*
X315700Y37100D02*
X315700Y23100D01*
D23*
X295240Y94100D02*
X282160Y94100D01*
X267240Y66100D02*
X254160Y66100D01*
D22*
X315700Y53100D02*
X315700Y39100D01*
D23*
X279240Y94100D02*
X266160Y94100D01*
X251240Y66100D02*
X238160Y66100D01*
D24*
X347980Y157480D02*
X347980Y264160D01*
X347980Y157480D02*
X317500Y127000D01*
X506730Y397510D02*
X575310Y397510D01*
X584200Y406400D01*
X506730Y397510D02*
X440690Y397510D01*
X25400Y355600D02*
X25400Y457200D01*
X25400Y355600D02*
X38100Y342900D01*
X62900Y342900D01*
X63700Y343700D01*
X330200Y508000D02*
X440690Y397510D01*
X330200Y508000D02*
X76200Y508000D01*
X25400Y457200D01*
D25*
X947958Y508000D03*
D26*
X922558Y533400D01*
X863600Y533400D01*
X850900Y546100D01*
X850900Y558800D01*
D27*
X901700Y380600D02*
X787800Y380600D01*
X787400Y381000D01*
D25*
X787400Y381000D03*
X736600Y381000D03*
D27*
X711200Y355600D01*
X596900Y355600D01*
X584200Y368300D01*
X584200Y406400D01*
D24*
X236620Y127000D02*
X152800Y43180D01*
X236620Y127000D02*
X317500Y127000D01*
X315700Y125200D02*
X315700Y30100D01*
X315700Y125200D02*
X317500Y127000D01*
X802080Y149300D02*
X823800Y149300D01*
X802080Y149300D02*
X744220Y91440D01*
X632460Y91440D02*
X347980Y91440D01*
X716280Y63500D02*
X744220Y91440D01*
X716280Y63500D02*
X660400Y63500D01*
X632460Y91440D01*
D26*
X368300Y317500D02*
X317500Y317500D01*
X292100Y342900D01*
D24*
X779780Y193320D02*
X823800Y149300D01*
X779780Y193320D02*
X779780Y262890D01*
D25*
X779780Y262890D03*
D24*
X254000Y419100D02*
X228600Y393700D01*
X228600Y317500D01*
X228600Y215900D01*
X254000Y190500D01*
X254000Y304800D02*
X241300Y304800D01*
X228600Y317500D01*
D26*
X508500Y292100D02*
X523900Y307500D01*
X266700Y292100D02*
X254000Y304800D01*
X266700Y292100D02*
X508500Y292100D01*
X523900Y307500D02*
X527934Y307500D01*
X544626Y290808D01*
X759482Y290808D02*
X763270Y290830D01*
X640080Y290808D02*
X544626Y290808D01*
X640080Y290808D02*
X759482Y290808D01*
X763270Y290830D02*
X775970Y290830D01*
X812800Y254000D01*
D25*
X640080Y290808D03*
D24*
X744220Y264160D02*
X744220Y157480D01*
D25*
X744220Y157480D03*
D26*
X660400Y406400D02*
X647700Y406400D01*
X609600Y368300D01*
D25*
X609600Y368300D03*
D26*
X939800Y342900D02*
X939800Y254000D01*
X939800Y342900D02*
X927100Y355600D01*
X787400Y355600D01*
X736600Y406400D01*
D24*
X646030Y493630D02*
X901700Y493630D01*
X609600Y457200D02*
X527050Y457200D01*
X609600Y457200D02*
X646030Y493630D01*
X469900Y431800D02*
X384810Y516890D01*
X736600Y431800D02*
X749300Y419100D01*
X877170Y419100D02*
X901700Y443630D01*
X736600Y431800D02*
X469900Y431800D01*
X749300Y419100D02*
X877170Y419100D01*
D26*
X609600Y307500D02*
X542900Y307500D01*
X609600Y307500D02*
X899000Y307500D01*
X914400Y292100D01*
X914400Y254000D01*
D25*
X622300Y330200D03*
D26*
X622300Y320200D01*
X609600Y307500D01*
D24*
X549910Y516890D02*
X506730Y516890D01*
X549910Y516890D02*
X584200Y482600D01*
D26*
X533400Y342900D02*
X533400Y328500D01*
X533400Y342900D02*
X508000Y368300D01*
X355600Y368300D01*
X342900Y381000D01*
X342900Y444500D01*
X304800Y482600D01*
X102600Y482600D01*
X63700Y443700D01*
X533400Y342900D02*
X660400Y342900D01*
M02*
