M48
;GenerationSoftware,Autodesk,EAGLE,8.7.0*%
;CreationDate,2018-11-06T21:30:33Z*%
FMAT,2
ICI,OFF
METRIC,TZ,000.000
T12C0.350
T11C0.800
T10C0.813
T9C0.914
T8C0.950
T7C1.016
T6C1.194
T5C1.321
T4C1.500
T3C2.300
T2C3.000
T1C4.000
%
G90
M71
T1
X3429Y3556
X61341Y52578
X61468Y3429
X3556Y52578
T2
X40132Y25400
X69850Y10160
T3
X85090Y4860
X85090Y18000
T4
X74422Y9144
X34798Y9144
X34798Y26416
X74422Y26416
T5
X52705Y45720
X38481Y39751
X38481Y51689
X50673Y51689
X50673Y39751
T6
X6370Y34370
X90170Y33060
X90170Y38060
X6350Y10200
X6350Y15200
X6350Y22900
X6350Y27900
X90170Y44363
X6370Y39370
X6370Y44370
X15280Y4318
X90170Y49363
X20280Y4318
T7
X88900Y25400
X91440Y25400
X93980Y25400
X81280Y25400
X83820Y25400
X86360Y25400
T8
X82380Y12430
X82380Y10430
X82380Y7930
X82380Y14930
T9
X85090Y55880
X87630Y55880
X90170Y55880
X92710Y55880
T10
X17780Y39370
X25400Y39370
X17780Y21590
X17780Y19050
X25400Y19050
X25400Y21590
X17780Y16510
X25400Y16510
X17780Y33020
X17780Y30480
X25400Y30480
X25400Y33020
X17780Y27940
X25400Y27940
X13970Y38100
X13970Y45720
X66040Y50800
X73660Y50800
X66040Y34290
X73660Y34290
X13970Y15240
X13970Y22860
X13970Y26670
X13970Y34290
X73660Y40640
X66040Y40640
X29210Y45720
X29210Y38100
X29210Y22860
X29210Y15240
X29210Y26670
X66040Y45720
X73660Y45720
X36830Y31750
X39370Y31750
X39370Y34290
X58420Y40640
X58420Y48260
X29210Y34290
X78740Y45720
X81280Y45720
X17780Y44450
X17780Y41910
X25400Y41910
X25400Y44450
T11
X31570Y3010
X28870Y9410
X26070Y6610
X31570Y4610
X27270Y9410
X24470Y6610
T12
X60960Y36830
X74422Y15748
X64008Y29081
X94796Y50800
X77978Y26289
X73660Y38100
X78740Y38100
X62230Y33020
M30