G04 EAGLE Gerber X2 export*
%TF.Part,Single*%
%TF.FileFunction,Soldermask,Bot,1*%
%TF.FilePolarity,Negative*%
%TF.GenerationSoftware,Autodesk,EAGLE,8.7.0*%
%TF.CreationDate,2018-11-06T21:30:33Z*%
G75*
%MOMM*%
%FSLAX34Y34*%
%LPD*%
%AMOC8*
5,1,8,0,0,1.08239X$1,22.5*%
G01*
%ADD10C,4.203191*%
%ADD11C,1.993900*%
%ADD12C,1.524000*%
%ADD13C,1.727200*%
%ADD14C,2.184400*%
%ADD15P,1.649562X8X22.500000*%
%ADD16P,1.649562X8X112.500000*%
%ADD17P,1.649562X8X202.500000*%
%ADD18P,1.649562X8X292.500000*%
%ADD19R,2.703200X2.703200*%
%ADD20C,3.203200*%
%ADD21C,1.661200*%
%ADD22C,2.503200*%
%ADD23C,1.625600*%
%ADD24C,1.603200*%
%ADD25C,1.511200*%
%ADD26C,0.959600*%


D10*
X34290Y35560D03*
X35560Y525780D03*
X613410Y525780D03*
X614680Y34290D03*
D11*
X892747Y330600D02*
X910654Y330600D01*
X910654Y380600D02*
X892747Y380600D01*
D12*
X584200Y399796D02*
X584200Y413004D01*
X584200Y475996D02*
X584200Y489204D01*
D11*
X72454Y102000D02*
X54547Y102000D01*
X54547Y152000D02*
X72454Y152000D01*
X72454Y229000D02*
X54547Y229000D01*
X54547Y279000D02*
X72454Y279000D01*
X72654Y343700D02*
X54747Y343700D01*
X54747Y393700D02*
X72654Y393700D01*
X72654Y443700D02*
X54747Y443700D01*
D13*
X812800Y261620D02*
X812800Y246380D01*
X838200Y246380D02*
X838200Y261620D01*
X863600Y261620D02*
X863600Y246380D01*
X889000Y246380D02*
X889000Y261620D01*
X914400Y261620D02*
X914400Y246380D01*
X939800Y246380D02*
X939800Y261620D01*
D14*
X536956Y457200D02*
X517144Y457200D01*
X516636Y516890D02*
X496824Y516890D01*
X496824Y397510D02*
X516636Y397510D01*
X394716Y397510D02*
X374904Y397510D01*
X374904Y516890D02*
X394716Y516890D01*
D15*
X787400Y457200D03*
X812800Y457200D03*
D12*
X177800Y444500D02*
X164592Y444500D01*
X164592Y419100D02*
X177800Y419100D01*
X254000Y419100D02*
X267208Y419100D01*
X267208Y444500D02*
X254000Y444500D01*
X177800Y393700D02*
X164592Y393700D01*
X254000Y393700D02*
X267208Y393700D01*
X177800Y215900D02*
X164592Y215900D01*
X164592Y190500D02*
X177800Y190500D01*
X254000Y190500D02*
X267208Y190500D01*
X267208Y215900D02*
X254000Y215900D01*
X177800Y165100D02*
X164592Y165100D01*
X254000Y165100D02*
X267208Y165100D01*
X177800Y330200D02*
X164592Y330200D01*
X164592Y304800D02*
X177800Y304800D01*
X254000Y304800D02*
X267208Y304800D01*
X267208Y330200D02*
X254000Y330200D01*
X177800Y279400D02*
X164592Y279400D01*
X254000Y279400D02*
X267208Y279400D01*
D11*
X892747Y443630D02*
X910654Y443630D01*
X910654Y493630D02*
X892747Y493630D01*
X152800Y52134D02*
X152800Y34227D01*
X202800Y34227D02*
X202800Y52134D01*
D16*
X139700Y381000D03*
X139700Y457200D03*
D15*
X660400Y508000D03*
X736600Y508000D03*
X660400Y342900D03*
X736600Y342900D03*
D16*
X139700Y152400D03*
X139700Y228600D03*
X139700Y266700D03*
X139700Y342900D03*
D17*
X736600Y406400D03*
X660400Y406400D03*
D18*
X292100Y457200D03*
X292100Y381000D03*
X292100Y228600D03*
X292100Y152400D03*
X292100Y342900D03*
X292100Y266700D03*
D15*
X660400Y457200D03*
X736600Y457200D03*
X368300Y317500D03*
X393700Y317500D03*
X393700Y342900D03*
D19*
X347980Y264160D03*
X347980Y91440D03*
X744220Y91440D03*
X744220Y264160D03*
D20*
X401320Y254000D03*
X698500Y101600D03*
D21*
X816510Y104300D02*
X831090Y104300D01*
X831090Y124300D02*
X816510Y124300D01*
X816510Y79300D02*
X831090Y79300D01*
X831090Y149300D02*
X816510Y149300D01*
D22*
X850900Y48600D03*
X850900Y180000D03*
D23*
X850900Y551688D02*
X850900Y565912D01*
X876300Y565912D02*
X876300Y551688D01*
X901700Y551688D02*
X901700Y565912D01*
X927100Y565912D02*
X927100Y551688D01*
D24*
X315700Y37100D02*
X315700Y23100D01*
D25*
X295240Y94100D02*
X282160Y94100D01*
X267240Y66100D02*
X254160Y66100D01*
D24*
X315700Y53100D02*
X315700Y39100D01*
D25*
X279240Y94100D02*
X266160Y94100D01*
X251240Y66100D02*
X238160Y66100D01*
D26*
X947958Y508000D03*
X787400Y381000D03*
X736600Y381000D03*
X779780Y262890D03*
X640080Y290808D03*
X744220Y157480D03*
X609600Y368300D03*
X622300Y330200D03*
M02*
